<?xml version="1.0" encoding="UTF-8"?>
<svg version="1.1" xmlns="http://www.w3.org/2000/svg" width="1024" height="1024">
<path d="M0 0 C337.92 0 675.84 0 1024 0 C1024 337.92 1024 675.84 1024 1024 C686.08 1024 348.16 1024 0 1024 C0 686.08 0 348.16 0 0 Z " fill="#FDFDFD" transform="translate(0,0)"/>
<path d="M0 0 C3.30940917 1.26940235 6.41255656 2.68713314 9.51953125 4.390625 C28.8565801 14.86065183 46.28713614 20.36356528 68 24 C69.14597656 24.20367187 70.29195312 24.40734375 71.47265625 24.6171875 C96.35532029 27.31763166 124.09310171 24.68315073 147.4375 15.25 C148.05802246 15.00048584 148.67854492 14.75097168 149.31787109 14.49389648 C154.88411304 12.19055075 160.02699874 9.31969923 165.1953125 6.22265625 C168.36611241 4.84039946 169.76101091 4.94999804 173 6 C172.52447297 16.93712165 164.64449986 25.78269277 157 33 C148.81780092 39.99428866 139.811179 44.87301859 130.0078125 49.2109375 C129.34942383 49.50581055 128.69103516 49.80068359 128.01269531 50.10449219 C126.63290235 50.71840298 125.24636123 51.31730353 123.85449219 51.90332031 C119.03512159 54.06680106 116.3152324 56.03115508 114 61 C113.65631033 63.92718744 113.52230502 66.40616918 113.625 69.3125 C113.64224121 70.10736816 113.65948242 70.90223633 113.67724609 71.72119141 C114.09289115 85.78896322 116.56410048 98.99299809 119.60473633 112.69506836 C121.62145309 121.90513062 123.31030402 131.13274554 124.8125 140.4375 C125.12247925 142.32782959 125.12247925 142.32782959 125.4387207 144.25634766 C126.69701873 152.2229239 127.37570492 159.88416394 128 168 C186.74 168 245.48 168 306 168 C306 246.87 306 325.74 306 407 C157.83 407 9.66 407 -143 407 C-143 380.27 -143 353.54 -143 326 C-123.53 326 -104.06 326 -84 326 C-84 299.93 -84 273.86 -84 247 C-57.6 247 -31.2 247 -4 247 C-4 220.93 -4 194.86 -4 168 C12.83 168 29.66 168 47 168 C47.66 161.07 48.32 154.14 49 147 C49.50227834 143.41190036 50.01725897 139.88201202 50.65625 136.32421875 C50.87794861 135.02735893 50.87794861 135.02735893 51.10412598 133.70429993 C51.56214842 131.03071334 52.03020852 128.35904102 52.5 125.6875 C53.11938966 122.12972323 53.73384511 118.57113359 54.34375 115.01171875 C54.49014923 114.15890823 54.63654846 113.30609772 54.78738403 112.42744446 C55.91098598 105.77521292 56.80262035 99.11492817 57.57568359 92.41357422 C57.99195984 89.06468216 58.53398174 85.75950397 59.125 82.4375 C61.43405152 68.15720048 61.43405152 68.15720048 57.5078125 54.69140625 C52.82850085 49.44233386 46.40130314 46.20650357 40.375 42.75 C4.52972892 22.17472213 4.52972892 22.17472213 -2 7 C-2.25 4.375 -2.25 4.375 -2 2 C-1.34 1.34 -0.68 0.68 0 0 Z " fill="#1D265C" transform="translate(427,272)"/>
<path d="M0 0 C3.30940917 1.26940235 6.41255656 2.68713314 9.51953125 4.390625 C28.8565801 14.86065183 46.28713614 20.36356528 68 24 C69.14597656 24.20367187 70.29195313 24.40734375 71.47265625 24.6171875 C96.35532029 27.31763166 124.09310171 24.68315073 147.4375 15.25 C148.05802246 15.00048584 148.67854492 14.75097168 149.31787109 14.49389648 C154.88411304 12.19055075 160.02699874 9.31969923 165.1953125 6.22265625 C168.36611241 4.84039946 169.76101091 4.94999804 173 6 C172.52447297 16.93712165 164.64449986 25.78269277 157 33 C148.81780092 39.99428866 139.811179 44.87301859 130.0078125 49.2109375 C129.34942383 49.50581055 128.69103516 49.80068359 128.01269531 50.10449219 C126.63290235 50.71840298 125.24636123 51.31730353 123.85449219 51.90332031 C119.03512159 54.06680106 116.3152324 56.03115508 114 61 C113.65631033 63.92718744 113.52230502 66.40616918 113.625 69.3125 C113.65086182 70.50480225 113.65086182 70.50480225 113.67724609 71.72119141 C114.09289115 85.78896322 116.56410048 98.99299809 119.60473633 112.69506836 C121.62145309 121.90513062 123.31030402 131.13274554 124.8125 140.4375 C125.01915283 141.69771973 125.22580566 142.95793945 125.4387207 144.25634766 C126.69701873 152.2229239 127.37570492 159.88416394 128 168 C186.74 168 245.48 168 306 168 C306 246.87 306 325.74 306 407 C305.67 407 305.34 407 305 407 C305 328.46 305 249.92 305 169 C276.29 169.495 276.29 169.495 247 170 C247 195.74 247 221.48 247 248 C164.83 248 82.66 248 -2 248 C-2 222.26 -2 196.52 -2 170 C-2.66 169.34 -3.32 168.68 -4 168 C12.83 168 29.66 168 47 168 C47.66 161.07 48.32 154.14 49 147 C49.50227834 143.41190036 50.01725897 139.88201202 50.65625 136.32421875 C50.80404907 135.45964554 50.95184814 134.59507233 51.10412598 133.70429993 C51.56214842 131.03071334 52.03020852 128.35904102 52.5 125.6875 C53.11938966 122.12972323 53.73384511 118.57113359 54.34375 115.01171875 C54.49014923 114.15890823 54.63654846 113.30609772 54.78738403 112.42744446 C55.91098598 105.77521292 56.80262035 99.11492817 57.57568359 92.41357422 C57.99195984 89.06468216 58.53398174 85.75950397 59.125 82.4375 C61.43405152 68.15720048 61.43405152 68.15720048 57.5078125 54.69140625 C52.82850085 49.44233386 46.40130314 46.20650357 40.375 42.75 C4.52972892 22.17472213 4.52972892 22.17472213 -2 7 C-2.25 4.375 -2.25 4.375 -2 2 C-1.34 1.34 -0.68 0.68 0 0 Z " fill="#49A091" transform="translate(427,272)"/>
<path d="M0 0 C81.84 0 163.68 0 248 0 C248 25.41 248 50.82 248 77 C166.16 77 84.32 77 0 77 C0 51.59 0 26.18 0 0 Z " fill="#FAFBFA" transform="translate(286,600)"/>
<path d="M0 0 C82.5 0 165 0 250 0 C250 25.08 250 50.16 250 76 C167.5 76 85 76 0 76 C0 50.92 0 25.84 0 0 Z " fill="#FDFDFD" transform="translate(346,522)"/>
<path d="M0 0 C38.61 0 77.22 0 117 0 C117 25.08 117 50.16 117 76 C77.73 76 38.46 76 -2 76 C-0.68 70.39 0.64 64.78 2 59 C2.30127068 55.38985808 2.48973602 52.19185588 2.375 48.625 C2.35566406 47.28356934 2.35566406 47.28356934 2.3359375 45.91503906 C2.14216722 37.04702119 1.4624394 28.19799151 0.71240234 19.36181641 C0.62168457 18.28851074 0.5309668 17.21520508 0.4375 16.109375 C0.35371094 15.17061523 0.26992188 14.23185547 0.18359375 13.26464844 C-0.06469206 8.84965137 0 4.42197297 0 0 Z " fill="#FDFDFD" transform="translate(556,443)"/>
<path d="M0 0 C16.17 0 32.34 0 49 0 C47.5625 11.9375 47.5625 11.9375 47.11547852 15.64428711 C46.86182188 17.75455272 46.61118786 19.8651828 46.36279297 21.97607422 C46.15119507 23.73976978 45.93069036 25.502522 45.68798828 27.26220703 C44.78898695 34.10144503 44.77871134 40.96967812 44.75976562 47.85644531 C44.75001899 49.9958324 44.71888618 52.13427286 44.6875 54.2734375 C44.6237421 62.64957047 45.20853161 69.41706322 49 77 C32.83 77 16.66 77 0 77 C0 51.59 0 26.18 0 0 Z " fill="#FBFBFB" transform="translate(425,442)"/>
<path d="M0 0 C7.37724052 2.89820163 10.11869697 10.76391209 13.140625 17.53125 C18.65799959 30.46295815 22.32385573 43.96844262 25.72192383 57.57910156 C28.26323942 67.49999033 31.2740527 78.41107905 37 87 C12.91 87 -11.18 87 -36 87 C-33.69 82.38 -31.38 77.76 -29 73 C-25.58024467 64.36511778 -23.06377351 55.69796977 -20.625 46.75 C-17.16165629 34.04283608 -13.05743561 21.73172017 -7 10 C-6.34 10 -5.68 10 -5 10 C-4.9175 9.278125 -4.835 8.55625 -4.75 7.8125 C-3.85249799 4.44686746 -2.2885722 2.58387184 0 0 Z " fill="#FBFDFC" transform="translate(513,432)"/>
<path d="M0 0 C0.96486328 0.62068359 0.96486328 0.62068359 1.94921875 1.25390625 C2.64402344 1.67800781 3.33882812 2.10210937 4.0546875 2.5390625 C10.77869683 7.06799186 15.41062496 13.55735144 17.94921875 21.25390625 C19.05478289 30.94687558 17.71310189 39.52665137 12.32421875 47.7265625 C6.22078658 55.34313723 -2.0196706 60.05609429 -11.73828125 61.25390625 C-22.10141974 61.62507883 -30.27185137 58.29392716 -38.09765625 51.46875 C-44.51694632 44.78884773 -47.18227864 36.98458813 -47.67578125 27.81640625 C-47.3332483 18.51276942 -43.44322244 11.11771885 -36.73828125 4.75390625 C-26.46049516 -3.41387077 -12.1327918 -6.63259285 0 0 Z " fill="#45A190" transform="translate(529.05078125,226.74609375)"/>
<path d="M0 0 C2.64 0 5.28 0 8 0 C8 4.29 8 8.58 8 13 C10.31 13 12.62 13 15 13 C15 12.154375 15 11.30875 15 10.4375 C16.25913823 6.10921234 18.02192668 4.1699705 21.48828125 1.36328125 C26.85732104 -1.55086321 32.67091537 -0.92954961 38.40625 0.671875 C42.6111992 2.46054742 45.39033211 4.80116634 47.37109375 8.94921875 C48.87095292 13.84006388 48.98119185 18.52823159 47.08203125 23.3125 C44.5334105 27.79939219 42.07824366 30.52269275 37 32 C31.28547132 32.62097354 26.62741255 32.82798182 21.4375 30.1875 C20.633125 29.465625 19.82875 28.74375 19 28 C18.1028125 27.3503125 18.1028125 27.3503125 17.1875 26.6875 C15.30877937 24.0177391 15.3005544 21.18587661 15 18 C12.69 18 10.38 18 8 18 C8 22.29 8 26.58 8 31 C5.36 31 2.72 31 0 31 C0 20.77 0 10.54 0 0 Z " fill="#1C255F" transform="translate(651,715)"/>
<path d="M0 0 C26.4 0 52.8 0 80 0 C80 0.33 80 0.66 80 1 C53.93 1 27.86 1 1 1 C1.96973274 2.18798962 1.96973274 2.18798962 3.73361784 2.1241985 C4.8767659 2.12362892 4.8767659 2.12362892 6.04300785 2.12304783 C6.91933119 2.12503888 7.79565453 2.12702993 8.69853312 2.12908131 C10.15910589 2.12471205 10.15910589 2.12471205 11.64918518 2.12025452 C13.18792428 2.12153615 13.18792428 2.12153615 14.75774902 2.12284368 C18.22336366 2.12450157 21.68893077 2.11897209 25.15454102 2.11352539 C27.62756346 2.11324356 30.100586 2.11340117 32.5736084 2.1139679 C37.91238081 2.11419622 43.25113819 2.1113448 48.58990669 2.10573006 C56.30895295 2.09761727 64.0279933 2.09500006 71.74704336 2.09374207 C84.26943525 2.0915512 96.79182063 2.08489017 109.31420898 2.07543945 C121.48152636 2.06626623 133.64884197 2.05918496 145.81616211 2.05493164 C146.94037186 2.05453756 146.94037186 2.05453756 148.08729292 2.05413551 C151.84702416 2.05283051 155.60675541 2.05156679 159.36648667 2.05032361 C190.57766251 2.03994991 221.78883027 2.02225653 253 2 C253 2.33 253 2.66 253 3 C170.5 3 88 3 3 3 C3 28.08 3 53.16 3 79 C85.5 79 168 79 253 79 C253 79.33 253 79.66 253 80 C222.17278993 80.12883943 191.34557474 80.25636813 160.5183522 80.38218227 C156.84035976 80.39719424 153.16236737 80.41221687 149.484375 80.42724609 C148.75245993 80.43023671 148.02054487 80.43322732 147.26645055 80.43630856 C135.57023607 80.48412457 123.8740253 80.53279402 112.17781577 80.58180541 C100.08639706 80.63245286 87.9949746 80.68212188 75.90354848 80.73096704 C69.1499575 80.75827505 62.39636893 80.78599825 55.64278412 80.81480408 C18.09460256 80.97457548 -19.45142826 81.01958205 -57 81 C-57 106.41 -57 131.82 -57 158 C-57.33 158 -57.66 158 -58 158 C-58.33 131.93 -58.66 105.86 -59 79 C-39.53 79 -20.06 79 0 79 C0 52.93 0 26.86 0 0 Z " fill="#7B7B7E" transform="translate(343,519)"/>
<path d="M0 0 C3.76916441 2.7326442 6.02501042 5.38753126 7.5 9.8125 C8.2285368 16.6440254 7.76921249 21.33915065 3.5 26.8125 C-1.66432602 31.00851489 -6.10087806 31.43365677 -12.6875 31.203125 C-17.53454705 30.52992402 -20.17027171 28.32563909 -23.3125 24.75 C-26.32090354 19.84155212 -26.06620528 14.37885612 -25.5 8.8125 C-20.48840009 -1.78896135 -10.46723593 -3.55138362 0 0 Z " fill="#1E2861" transform="translate(411.5,716.1875)"/>
<path d="M0 0 C2.97 0 5.94 0 9 0 C11.97 5.61 14.94 11.22 18 17 C20.26126142 11.78054022 20.26126142 11.78054022 22.51733398 6.55883789 C24.88888889 1.11111111 24.88888889 1.11111111 26 0 C28.97 0 31.94 0 35 0 C35 10.23 35 20.46 35 31 C32.36 31 29.72 31 27 31 C26.67 26.05 26.34 21.1 26 16 C23.03 21.445 23.03 21.445 20 27 C18.02 27 16.04 27 14 27 C12.35 23.37 10.7 19.74 9 16 C8.67 21.28 8.34 26.56 8 32 C5.36 32 2.72 32 0 32 C0 21.44 0 10.88 0 0 Z " fill="#252E65" transform="translate(524,715)"/>
<path d="M0 0 C2.64 0 5.28 0 8 0 C8.33 5.94 8.66 11.88 9 18 C10.28197266 16.17662109 10.28197266 16.17662109 11.58984375 14.31640625 C12.70567766 12.73173456 13.82156588 11.14710112 14.9375 9.5625 C15.50146484 8.76005859 16.06542969 7.95761719 16.64648438 7.13085938 C17.18466797 6.36708984 17.72285156 5.60332031 18.27734375 4.81640625 C18.77484131 4.10943604 19.27233887 3.40246582 19.78491211 2.67407227 C21 1 21 1 22 0 C24.64 0 27.28 0 30 0 C30 10.56 30 21.12 30 32 C27.36 32 24.72 32 22 32 C21.505 22.595 21.505 22.595 21 13 C20.14535156 14.21558594 19.29070312 15.43117188 18.41015625 16.68359375 C17.29432234 18.26826544 16.17843412 19.85289888 15.0625 21.4375 C14.49853516 22.23994141 13.93457031 23.04238281 13.35351562 23.86914062 C12.81533203 24.63291016 12.27714844 25.39667969 11.72265625 26.18359375 C11.22515869 26.89056396 10.72766113 27.59753418 10.21508789 28.32592773 C9 30 9 30 8 31 C5.36 31 2.72 31 0 31 C0 20.77 0 10.54 0 0 Z " fill="#242D66" transform="translate(457,715)"/>
<path d="M0 0 C9.57 0 19.14 0 29 0 C29 10.56 29 21.12 29 32 C26.36 32 23.72 32 21 32 C21 23.75 21 15.5 21 7 C16.71 7 12.42 7 8 7 C8 14.92 8 22.84 8 31 C5.36 31 2.72 31 0 31 C0 20.77 0 10.54 0 0 Z " fill="#232D64" transform="translate(579,715)"/>
<path d="M0 0 C3.01125 -0.0825 6.0225 -0.165 9.125 -0.25 C10.06230957 -0.28641602 10.99961914 -0.32283203 11.96533203 -0.36035156 C17.63039899 -0.43516182 20.67553897 0.26963425 25 4 C26.72515631 7.45031261 26.49677924 11.22716304 26 15 C23.80168636 18.03215675 22.55036806 18.81654398 19 20 C15.32893957 20.13281695 11.67480286 20.04323297 8 20 C8 23.63 8 27.26 8 31 C5.36 31 2.72 31 0 31 C0 20.77 0 10.54 0 0 Z " fill="#202964" transform="translate(425,715)"/>
<path d="M0 0 C2.05078125 0.03255208 4.1015625 0.06510417 6.15234375 0.09765625 C9.7858413 6.73577677 12.66349943 13.64186822 15.46484375 20.66015625 C15.82642578 21.56540039 16.18800781 22.47064453 16.56054688 23.40332031 C19.15234375 29.95743237 19.15234375 29.95743237 19.15234375 31.09765625 C16.51234375 31.09765625 13.87234375 31.09765625 11.15234375 31.09765625 C10.49234375 29.11765625 9.83234375 27.13765625 9.15234375 25.09765625 C2.71734375 25.59265625 2.71734375 25.59265625 -3.84765625 26.09765625 C-4.50765625 28.07765625 -5.16765625 30.05765625 -5.84765625 32.09765625 C-8.48765625 32.09765625 -11.12765625 32.09765625 -13.84765625 32.09765625 C-13.18145381 28.17466526 -12.02777146 24.66695829 -10.59765625 20.95703125 C-10.15421875 19.80460938 -9.71078125 18.6521875 -9.25390625 17.46484375 C-8.78984375 16.27117188 -8.32578125 15.0775 -7.84765625 13.84765625 C-7.38359375 12.63851562 -6.91953125 11.429375 -6.44140625 10.18359375 C-2.5575233 0.13517565 -2.5575233 0.13517565 0 0 Z " fill="#1F2A63" transform="translate(301.84765625,714.90234375)"/>
<path d="M0 0 C3.77094609 1.4809271 5.74446912 3.61670367 8 7 C5.75 8.625 5.75 8.625 3 10 C0.8125 9.25 0.8125 9.25 -1 8 C-3.84083641 6.57958179 -5.85477278 6.68547728 -9 7 C-11.54002013 8.37283423 -11.54002013 8.37283423 -13 11 C-13.36309868 15.57504331 -13.11623182 19.53507272 -12 24 C-5.90258936 25.20020761 -5.90258936 25.20020761 0 24 C0.33 23.01 0.66 22.02 1 21 C3.02045442 21.60183749 5.02111039 22.27306096 7 23 C7.33 23.66 7.66 24.32 8 25 C5.29442762 28.80784261 3.44147657 30.58387704 -1 32 C-6.31091261 32.6648304 -10.6727009 32.66364955 -15.5 30.25 C-19.41948592 26.72246267 -21.72181347 23.90499709 -22.23828125 18.51171875 C-22.39682895 12.47856139 -22.29537816 8.63448696 -18 4 C-12.74183485 -0.9952569 -6.87969575 -0.95184832 0 0 Z " fill="#1E2661" transform="translate(726,715)"/>
<path d="M0 0 C2.64 0 5.28 0 8 0 C20 25.31412104 20 25.31412104 20 31 C17.69 31 15.38 31 13 31 C11.65757579 28.06657102 10.32765933 25.12763748 9 22.1875 C8.6184375 21.35412109 8.236875 20.52074219 7.84375 19.66210938 C7.4828125 18.85966797 7.121875 18.05722656 6.75 17.23046875 C6.41484375 16.49207764 6.0796875 15.75368652 5.734375 14.99291992 C5 13 5 13 5 10 C4.34 10 3.68 10 3 10 C2.90847656 10.99128906 2.81695313 11.98257813 2.72265625 13.00390625 C2.09669589 17.3856288 0.38871015 21.00030566 -1.5625 24.9375 C-1.89185547 25.62134766 -2.22121094 26.30519531 -2.56054688 27.00976562 C-3.36517039 28.67731871 -4.1813897 30.33926839 -5 32 C-7.64 32 -10.28 32 -13 32 C-11.34420125 26.70659157 -9.23401079 21.65857761 -7.0625 16.5625 C-6.71509766 15.74201172 -6.36769531 14.92152344 -6.00976562 14.07617188 C-4.01906897 9.3787276 -2.01275987 4.68802691 0 0 Z " fill="#212B64" transform="translate(625,715)"/>
<path d="M0 0 C2.97 0 5.94 0 9 0 C10.71348735 4.09155867 12.42236208 8.18500311 14.12695312 12.28027344 C14.7077131 13.67370761 15.28973926 15.06661475 15.87304688 16.45898438 C16.71035383 18.45826832 17.54311689 20.45939176 18.375 22.4609375 C19.12910156 24.26763916 19.12910156 24.26763916 19.8984375 26.11083984 C21 29 21 29 21 31 C18.36 31 15.72 31 13 31 C10.36 25.06 7.72 19.12 5 13 C1.78671647 19.39541264 1.78671647 19.39541264 -1.1875 25.875 C-2.0909102 27.94096596 -2.99157611 29.98315223 -4 32 C-6.64 32 -9.28 32 -12 32 C-10.95693776 28.61004771 -9.74796225 25.39563582 -8.25 22.1875 C-4.97940088 15.00209285 -2.56850698 7.45723194 0 0 Z " fill="#242D66" transform="translate(334,715)"/>
<path d="M0 0 C3.3801438 2.7765467 4.50024031 6.49342457 5.0390625 10.6875 C5.22400491 15.66413225 4.55290328 19.18123947 1.75 23.4375 C-1.91908557 25.88355705 -4.98618769 26.27696402 -9.25 25.4375 C-11.94105198 23.26175584 -13.70532928 21.52684144 -15.25 18.4375 C-16.27929918 7.16583034 -16.27929918 7.16583034 -13.375 2.75 C-9.5504827 -1.4119747 -5.39226784 -1.34806696 0 0 Z " fill="#2E7D6A" transform="translate(438.25,626.5625)"/>
<path d="M0 0 C9.24 0 18.48 0 28 0 C28 2.31 28 4.62 28 7 C24.7 7 21.4 7 18 7 C18 15.25 18 23.5 18 32 C15.36 32 12.72 32 10 32 C10 23.75 10 15.5 10 7 C6.7 7 3.4 7 0 7 C0 4.69 0 2.38 0 0 Z " fill="#2B346A" transform="translate(491,715)"/>
<path d="M0 0 C2.31 0 4.62 0 7 0 C7 8.58 7 17.16 7 26 C5.35 26 3.7 26 2 26 C1.505 19.565 1.505 19.565 1 13 C0.71125 14.0725 0.4225 15.145 0.125 16.25 C-0.72820109 19.09400364 -1.5636503 21.43508983 -3 24 C-4.890625 23.3515625 -4.890625 23.3515625 -7 22 C-8.44443755 18.41046491 -9.12002092 14.78391003 -10 11 C-10.33 15.95 -10.66 20.9 -11 26 C-12.32 26 -13.64 26 -15 26 C-15 17.75 -15 9.5 -15 1 C-13.02 1 -11.04 1 -9 1 C-7.35 4.96 -5.7 8.92 -4 13 C-2.68 8.71 -1.36 4.42 0 0 Z " fill="#237C68" transform="translate(484,626)"/>
<path d="M0 0 C7.92 0 15.84 0 24 0 C24 2.31 24 4.62 24 7 C18.72 7 13.44 7 8 7 C8 15.25 8 23.5 8 32 C5.36 32 2.72 32 0 32 C0 21.44 0 10.88 0 0 Z " fill="#2C366B" transform="translate(359,715)"/>
<path d="M0 0 C12 0 12 0 15.25 1.4375 C17.48968801 4.71704316 17.66117036 7.02425432 17.41015625 10.9375 C17 13 17 13 15.5 15.0625 C11.88098213 16.4196317 8.85495364 16.19274768 5 16 C5 19.3 5 22.6 5 26 C3.35 26 1.7 26 0 26 C0 17.42 0 8.84 0 0 Z " fill="#35836E" transform="translate(447,626)"/>
<path d="M0 0 C5.28 0 10.56 0 16 0 C16 8.58 16 17.16 16 26 C14.35 26 12.7 26 11 26 C11 19.07 11 12.14 11 5 C9.02 5 7.04 5 5 5 C5.08701172 6.51980469 5.08701172 6.51980469 5.17578125 8.0703125 C5.66796026 20.26997196 5.66796026 20.26997196 2.75 23.9375 C0 26 0 26 -4 26 C-4 24.35 -4 22.7 -4 21 C-3.01 20.67 -2.02 20.34 -1 20 C-0.67 13.4 -0.34 6.8 0 0 Z " fill="#287B66" transform="translate(331,626)"/>
<path d="M0 0 C2.42260742 0.12133789 2.42260742 0.12133789 5 1 C6.30200195 3.19311523 6.30200195 3.19311523 7.23828125 6.05859375 C7.58310547 7.08404297 7.92792969 8.10949219 8.28320312 9.16601562 C8.62287109 10.24560547 8.96253906 11.32519531 9.3125 12.4375 C9.67150391 13.51322266 10.03050781 14.58894531 10.40039062 15.69726562 C13 23.58522321 13 23.58522321 13 26 C11.35 26 9.7 26 8 26 C7.505 23.525 7.505 23.525 7 21 C3.7 21 0.4 21 -3 21 C-3.33 22.65 -3.66 24.3 -4 26 C-5.65 26 -7.3 26 -9 26 C-7.24594255 19.9392324 -5.35287469 13.92839151 -3.375 7.9375 C-3.15690674 7.27032959 -2.93881348 6.60315918 -2.71411133 5.91577148 C-1.11824314 1.11824314 -1.11824314 1.11824314 0 0 Z " fill="#328671" transform="translate(503,626)"/>
<path d="M0 0 C1.65 0 3.3 0 5 0 C5.96277259 2.35243492 6.92028498 4.70679619 7.875 7.0625 C8.14441406 7.71927734 8.41382813 8.37605469 8.69140625 9.05273438 C10.94686966 14.6363816 13 19.90388505 13 26 C11.35 25.67 9.7 25.34 8 25 C7.67 23.68 7.34 22.36 7 21 C4.03 20.67 1.06 20.34 -2 20 C-2.33 21.98 -2.66 23.96 -3 26 C-4.65 26 -6.3 26 -8 26 C-6.36231563 16.99273599 -3.13020303 8.57360642 0 0 Z " fill="#368674" transform="translate(359,626)"/>
<path d="M0 0 C2.69990662 1.79993774 4.5418865 3.083773 6 6 C6.5811138 13.08958838 6.5811138 13.08958838 4.125 16.9375 C1.62131796 19.36754434 0.63814131 19.91491449 -2.8125 20.375 C-6 20 -6 20 -8.875 18.1875 C-11.95343523 13.56984715 -12.0296418 9.39731588 -11 4 C-7.85256482 0.01942021 -4.96474177 -0.82745696 0 0 Z " fill="#F4F5F7" transform="translate(685,721)"/>
<path d="M0 0 C3.99787945 0.81589377 6.78014457 2.24054828 9.0625 5.625 C10.13821653 10.1316003 9.62682769 13.54149084 7.5 17.625 C4.31505146 20.23829111 2.14914122 20.55202426 -1.9375 20.625 C-4.63847777 19.82200661 -5.57389048 19.23365072 -7.015625 16.8203125 C-8.57312794 13.11134364 -8.617724 9.56609162 -7.9375 5.625 C-5.5295018 2.15464966 -4.13585968 0.87997015 0 0 Z " fill="#F6F7F9" transform="translate(401.9375,720.375)"/>
<path d="M0 0 C5.94 0 11.88 0 18 0 C18 7.92 18 15.84 18 24 C16.68 24 15.36 24 14 24 C14 17.4 14 10.8 14 4 C10.7 4 7.4 4 4 4 C4 10.6 4 17.2 4 24 C2.68 24 1.36 24 0 24 C0 16.08 0 8.16 0 0 Z " fill="#1B6F5A" transform="translate(305,627)"/>
<path d="M0 0 C1.65 0 3.3 0 5 0 C5 0.99 5 1.98 5 3 C5.928125 3.103125 6.85625 3.20625 7.8125 3.3125 C11.16592025 4.03578672 12.02538331 4.32016307 14 7 C14.29296875 9.48046875 14.29296875 9.48046875 14.1875 12.1875 C14.16042969 13.08855469 14.13335937 13.98960937 14.10546875 14.91796875 C14.07066406 15.60503906 14.03585937 16.29210937 14 17 C12.66666667 17 11.33333333 17 10 17 C9.90234375 15.01432292 9.8046875 13.02864583 9.70703125 11.04296875 C8.99112846 8.26699522 8.99112846 8.26699522 4 6 C4 10.29 4 14.58 4 19 C3.01 18.67 2.02 18.34 1 18 C1 14.04 1 10.08 1 6 C-1.475 7.485 -1.475 7.485 -4 9 C-4.75011367 12.45728358 -4.75011367 12.45728358 -4 16 C-2.14579161 18.44098818 -2.14579161 18.44098818 0 20 C-1.98 20.66 -3.96 21.32 -6 22 C-8.50360898 18.79225099 -9.91152442 16.55051471 -10.5625 12.5 C-9.8020064 7.76803981 -8.53464957 6.2204585 -5 3 C-2.1875 2.625 -2.1875 2.625 0 3 C0 2.01 0 1.02 0 0 Z " fill="#297965" transform="translate(405,626)"/>
<path d="M0 0 C0.66 0.99 1.32 1.98 2 3 C2.33 2.01 2.66 1.02 3 0 C5.86724686 0.57344937 6.8614515 0.8614515 9 3 C9.33926947 5.33247761 9.67240066 7.66585471 10 10 C10.99 11.485 10.99 11.485 12 13 C8.93882432 15.62386487 8.26826873 16 4 16 C4 17.32 4 18.64 4 20 C2.35 20 0.7 20 -1 20 C-1 19.01 -1 18.02 -1 17 C-2.32 17 -3.64 17 -5 17 C-5 16.34 -5 15.68 -5 15 C-4.01 14.67 -3.02 14.34 -2 14 C-2.66 13.484375 -3.32 12.96875 -4 12.4375 C-6 10 -6 10 -6.4375 6.4375 C-6 3 -6 3 -4.6875 1.0625 C-3 0 -3 0 0 0 Z " fill="#458A7A" transform="translate(406,632)"/>
<path d="M0 0 C6.27 0 12.54 0 19 0 C19 1.32 19 2.64 19 4 C16.69 4 14.38 4 12 4 C12 10.93 12 17.86 12 25 C10.35 25 8.7 25 7 25 C7 18.07 7 11.14 7 4 C4.69 4 2.38 4 0 4 C0 2.68 0 1.36 0 0 Z " fill="#448F7D" transform="translate(374,627)"/>
<path d="M0 0 C2.375 0.875 2.375 0.875 4.375 2.875 C4.640625 5.37109375 4.640625 5.37109375 4.625 8.3125 C4.63015625 9.28058594 4.6353125 10.24867188 4.640625 11.24609375 C4.375 13.875 4.375 13.875 2.375 16.875 C-0.5625 17.375 -0.5625 17.375 -3.625 16.875 C-6.23880886 14.08693721 -6.84738513 11.52496636 -7.0625 7.8125 C-6.625 3.875 -6.625 3.875 -4.9375 1.3125 C-2.625 -0.125 -2.625 -0.125 0 0 Z " fill="#F1F6F5" transform="translate(433.625,630.125)"/>
<path d="M0 0 C3.96 0 7.92 0 12 0 C11.67 1.32 11.34 2.64 11 4 C8.69 4 6.38 4 4 4 C4 3.34 4 2.68 4 2 C3.34 2 2.68 2 2 2 C2.99 3.485 2.99 3.485 4 5 C4.39387788 7.32387947 4.73486085 9.65793749 5 12 C6.32 12.33 7.64 12.66 9 13 C9 13.99 9 14.98 9 16 C7.68 16 6.36 16 5 16 C5 19.3 5 22.6 5 26 C3.35 26 1.7 26 0 26 C0 17.42 0 8.84 0 0 Z " fill="#3B8773" transform="translate(447,626)"/>
<path d="M0 0 C2.46761004 4.34535315 2.56053997 8.09952181 2 13 C0.44728802 17.06662662 -0.36279402 18.57519602 -4 21 C-9.11698718 21.57772436 -9.11698718 21.57772436 -12 21 C-15 18.5 -15 18.5 -17 16 C-16.67 15.01 -16.34 14.02 -16 13 C-15.34 13 -14.68 13 -14 13 C-13.67 12.34 -13.34 11.68 -13 11 C-12.34 12.32 -11.68 13.64 -11 15 C-9.02 15 -7.04 15 -5 15 C-3.85185003 12.70370006 -3.69230191 10.92301914 -3.4375 8.375 C-3.35371094 7.55773437 -3.26992188 6.74046875 -3.18359375 5.8984375 C-3.12300781 5.27195312 -3.06242187 4.64546875 -3 4 C-2.34 4 -1.68 4 -1 4 C-0.67 2.68 -0.34 1.36 0 0 Z " fill="#388A74" transform="translate(441,631)"/>
<path d="M0 0 C2.31 0 4.62 0 7 0 C7 8.58 7 17.16 7 26 C5.35 26 3.7 26 2 26 C1.67 20.72 1.34 15.44 1 10 C1.99 10.33 2.98 10.66 4 11 C4.33 8.03 4.66 5.06 5 2 C3.68 2 2.36 2 1 2 C0.67 3.98 0.34 5.96 0 8 C-0.98120464 4.94736336 -0.98120464 3.05263664 0 0 Z " fill="#3B8976" transform="translate(484,626)"/>
<path d="M0 0 C3.63 0 7.26 0 11 0 C11 7.59 11 15.18 11 23 C9.68 23 8.36 23 7 23 C7 16.4 7 9.8 7 3 C4.03 3 1.06 3 -2 3 C-1.34 2.01 -0.68 1.02 0 0 Z " fill="#207662" transform="translate(312,628)"/>
<path d="M0 0 C6.27 0 12.54 0 19 0 C19.33 0.66 19.66 1.32 20 2 C14.06 2 8.12 2 2 2 C2 11.24 2 20.48 2 30 C3.98 30 5.96 30 8 30 C8 30.33 8 30.66 8 31 C5.36 31 2.72 31 0 31 C0 20.77 0 10.54 0 0 Z " fill="#2F3768" transform="translate(425,715)"/>
<path d="M0 0 C5.28 0 10.56 0 16 0 C16 0.33 16 0.66 16 1 C11.05 1 6.1 1 1 1 C1.33 3.31 1.66 5.62 2 8 C2.99 8.66 3.98 9.32 5 10 C5.87087738 14.03506518 5.86311899 18.25321156 4.015625 21.9921875 C2.75 23.625 2.75 23.625 0 26 C-1.32 26 -2.64 26 -4 26 C-4 24.35 -4 22.7 -4 21 C-3.01 20.67 -2.02 20.34 -1 20 C-0.67 13.4 -0.34 6.8 0 0 Z " fill="#62A090" transform="translate(331,626)"/>
<path d="M0 0 C3.79598549 1.49128001 5.71720399 3.65733441 8 7 C8 7.99 8 8.98 8 10 C3.71 10 -0.58 10 -5 10 C-4.01574101 5.07870506 -3.1837982 3.59461087 0 0 Z " fill="#F2F6F5" transform="translate(513,432)"/>
<path d="M0 0 C1.45792884 -0.05399736 2.91642712 -0.09279177 4.375 -0.125 C5.18710937 -0.14820313 5.99921875 -0.17140625 6.8359375 -0.1953125 C9 0 9 0 11 2 C10.46428571 5.53571429 10.46428571 5.53571429 9 7 C7.48071962 7.07179964 5.95832518 7.08392007 4.4375 7.0625 C3.61121094 7.05347656 2.78492188 7.04445313 1.93359375 7.03515625 C1.29550781 7.02355469 0.65742188 7.01195312 0 7 C0 4.69 0 2.38 0 0 Z " fill="#F5F6F8" transform="translate(433,722)"/>
<path d="M0 0 C1.65 0 3.3 0 5 0 C5.66 2.31 6.32 4.62 7 7 C5.5 5.625 5.5 5.625 4 4 C4 3.34 4 2.68 4 2 C3.01 2 2.02 2 1 2 C1.33 3.65 1.66 5.3 2 7 C2.66 7 3.32 7 4 7 C4.33 9.97 4.66 12.94 5 16 C3.35 16 1.7 16 0 16 C0.33 13.69 0.66 11.38 1 9 C0.01 8.67 -0.98 8.34 -2 8 C-1.125 2.25 -1.125 2.25 0 0 Z " fill="#488E7B" transform="translate(359,626)"/>
<path d="M0 0 C0.80824219 0.10183594 1.61648438 0.20367188 2.44921875 0.30859375 C3.06410156 0.39238281 3.67898438 0.47617187 4.3125 0.5625 C4.3125 1.5525 4.3125 2.5425 4.3125 3.5625 C1.6725 3.5625 -0.9675 3.5625 -3.6875 3.5625 C-4.0175 5.5425 -4.3475 7.5225 -4.6875 9.5625 C-6.3375 9.5625 -7.9875 9.5625 -9.6875 9.5625 C-9.433004 8.08043505 -9.15838238 6.60181385 -8.875 5.125 C-8.72417969 4.30128906 -8.57335937 3.47757813 -8.41796875 2.62890625 C-8.17691406 1.94699219 -7.93585938 1.26507812 -7.6875 0.5625 C-4.59271121 -0.46909626 -3.16118607 -0.41232862 0 0 Z " fill="#2A7D68" transform="translate(360.6875,642.4375)"/>
<path d="M0 0 C0.66 0 1.32 0 2 0 C3.25664978 2.90600261 4 4.79604584 4 8 C3.01 8 2.02 8 1 8 C1 8.66 1 9.32 1 10 C-1.31 10 -3.62 10 -6 10 C-5.38461538 4.46153846 -5.38461538 4.46153846 -3.4375 2.125 C-2.963125 1.75375 -2.48875 1.3825 -2 1 C-1.67 2.32 -1.34 3.64 -1 5 C-0.67 3.35 -0.34 1.7 0 0 Z " fill="#509988" transform="translate(508,633)"/>
<path d="M0 0 C0.804375 1.2065625 0.804375 1.2065625 1.625 2.4375 C4.43105369 5.46508424 5.96825194 5.72510809 10 6 C10.33 6.99 10.66 7.98 11 9 C10 10 10 10 6.25 10.375 C2.53212766 10.36162636 2.07568212 10.06306844 -1 7.5 C-1.66 6.675 -2.32 5.85 -3 5 C-2.67 4.01 -2.34 3.02 -2 2 C-1.34 2 -0.68 2 0 2 C0 1.34 0 0.68 0 0 Z " fill="#2C826D" transform="translate(427,642)"/>
<path d="M0 0 C1.32 0 2.64 0 4 0 C4.99 3.63 5.98 7.26 7 11 C5.35 11 3.7 11 2 11 C1.67 9.35 1.34 7.7 1 6 C-1.97 6 -4.94 6 -8 6 C-8 5.67 -8 5.34 -8 5 C-6.576875 4.87625 -6.576875 4.87625 -5.125 4.75 C-1.89538209 4.34925077 -1.89538209 4.34925077 -0.625 1.9375 C-0.41875 1.298125 -0.2125 0.65875 0 0 Z " fill="#469384" transform="translate(509,641)"/>
<path d="M0 0 C0.33 0 0.66 0 1 0 C1 6.6 1 13.2 1 20 C-0.32 20 -1.64 20 -3 20 C-3.02693575 17.87506859 -3.04636628 15.75004088 -3.0625 13.625 C-3.07410156 12.44164062 -3.08570313 11.25828125 -3.09765625 10.0390625 C-3 7 -3 7 -2 5 C-1.34 5 -0.68 5 0 5 C0 3.35 0 1.7 0 0 Z " fill="#237C66" transform="translate(384,631)"/>
<path d="M0 0 C1.67542976 0.28604898 3.34385343 0.61781233 5 1 C5.69289369 4.72430357 6.11144596 8.21083746 6 12 C4 12 4 12 2.375 10.625 C1 9 1 9 1 7 C0.01 7 -0.98 7 -2 7 C-1.125 1.125 -1.125 1.125 0 0 Z " fill="#3C8C79" transform="translate(503,626)"/>
<path d="M0 0 C2.31 0 4.62 0 7 0 C7.625 2.375 7.625 2.375 8 5 C6 7 6 7 2.875 7.125 C1.451875 7.063125 1.451875 7.063125 0 7 C0 4.69 0 2.38 0 0 Z " fill="#ECF5F3" transform="translate(452,631)"/>
<path d="M0 0 C4 1 4 1 5 2 C5.1875 5.4375 5.1875 5.4375 5 9 C4.34 9.66 3.68 10.32 3 11 C2.01 11 1.02 11 0 11 C0 7.37 0 3.74 0 0 Z " fill="#F1F7F6" transform="translate(410,633)"/>
<path d="M0 0 C0.99 0 1.98 0 3 0 C3 3.63 3 7.26 3 11 C-1 10 -1 10 -2 9 C-2.1875 5.5625 -2.1875 5.5625 -2 2 C-1.34 1.34 -0.68 0.68 0 0 Z " fill="#EFF5F3" transform="translate(402,633)"/>
<path d="M0 0 C0.66 0 1.32 0 2 0 C2.99 3.3 3.98 6.6 5 10 C2.69 10 0.38 10 -2 10 C-1.54177532 6.53058454 -1.10868317 3.32604951 0 0 Z " fill="#E8E9EF" transform="translate(303,724)"/>
<path d="M0 0 C0.66 0 1.32 0 2 0 C2.99 3.63 3.98 7.26 5 11 C4.34 11 3.68 11 3 11 C2.67 10.34 2.34 9.68 2 9 C1.34 9.66 0.68 10.32 0 11 C-0.66 8.69 -1.32 6.38 -2 4 C-1.34 4 -0.68 4 0 4 C0 2.68 0 1.36 0 0 Z " fill="#428D7D" transform="translate(475,631)"/>
<path d="M0 0 C0.99 0.66 1.98 1.32 3 2 C3.36328125 4.3125 3.36328125 4.3125 3.3125 7 C3.30863281 7.886875 3.30476563 8.77375 3.30078125 9.6875 C3 12 3 12 1 14 C0.01 13.34 -0.98 12.68 -2 12 C-1.67 11.34 -1.34 10.68 -1 10 C-0.77377919 8.29636178 -0.59111527 6.58671299 -0.4375 4.875 C-0.35371094 3.96492187 -0.26992188 3.05484375 -0.18359375 2.1171875 C-0.12300781 1.41851563 -0.06242187 0.71984375 0 0 Z " fill="#418F7B" transform="translate(333,634)"/>
<path d="M0 0 C1.98 0.495 1.98 0.495 4 1 C3.67 2.98 3.34 4.96 3 7 C1.68 7.33 0.36 7.66 -1 8 C-0.67 5.36 -0.34 2.72 0 0 Z " fill="#2B7C67" transform="translate(356,634)"/>
<path d="M0 0 C0.33 0 0.66 0 1 0 C1 6.6 1 13.2 1 20 C0.67 20 0.34 20 0 20 C-0.33 15.05 -0.66 10.1 -1 5 C-1.99 5.495 -1.99 5.495 -3 6 C-1.125 1.125 -1.125 1.125 0 0 Z " fill="#D8DDE8" transform="translate(478,727)"/>
<path d="M0 0 C2.62386487 3.06117568 3 3.73173127 3 8 C1.35 8 -0.3 8 -2 8 C-1.125 2.25 -1.125 2.25 0 0 Z " fill="#DEEDEA" transform="translate(361,634)"/>
<path d="M0 0 C2 2 2 2 2.125 5.125 C2.08375 6.07375 2.0425 7.0225 2 8 C0.68 8 -0.64 8 -2 8 C-1.125 1.125 -1.125 1.125 0 0 Z " fill="#E6F1EF" transform="translate(505,634)"/>
<path d="M0 0 C0.33 0 0.66 0 1 0 C1.33 2.31 1.66 4.62 2 7 C3.32 7.33 4.64 7.66 6 8 C6 8.99 6 9.98 6 11 C4.35 11 2.7 11 1 11 C-0.28317892 7.15046324 -0.06643637 4.05261865 0 0 Z " fill="#1B7159" transform="translate(450,631)"/>
<path d="M0 0 C0.99 0 1.98 0 3 0 C4.76462683 3.08809695 5 4.23312136 5 8 C4.34 8 3.68 8 3 8 C3 7.01 3 6.02 3 5 C2.34 5 1.68 5 1 5 C0.67 3.35 0.34 1.7 0 0 Z " fill="#27826B" transform="translate(360,628)"/>
<path d="M0 0 C4.29 0 8.58 0 13 0 C13 0.33 13 0.66 13 1 C10.36 1 7.72 1 5 1 C5 1.66 5 2.32 5 3 C3.35 3 1.7 3 0 3 C0 2.01 0 1.02 0 0 Z " fill="#277E65" transform="translate(375,627)"/>
<path d="M0 0 C0 0.99 0 1.98 0 3 C-1.63260714 4.37482707 -3.30225062 5.70647667 -5 7 C-5.99 8.485 -5.99 8.485 -7 10 C-7.66 10 -8.32 10 -9 10 C-7.61811547 6.78956118 -6.07578097 4.95063635 -3.375 2.75 C-2.74335938 2.22921875 -2.11171875 1.7084375 -1.4609375 1.171875 C-0.73777344 0.59179688 -0.73777344 0.59179688 0 0 Z " fill="#55A799" transform="translate(496,229)"/>
<path d="M0 0 C0.99 0.33 1.98 0.66 3 1 C2.67 4.96 2.34 8.92 2 13 C1.67 13 1.34 13 1 13 C0.855625 11.7625 0.71125 10.525 0.5625 9.25 C0.28133328 6.94769282 -0.04800803 4.81276869 -0.625 2.5625 C-0.74875 2.046875 -0.8725 1.53125 -1 1 C-0.67 0.67 -0.34 0.34 0 0 Z " fill="#207660" transform="translate(425,630)"/>
<path d="M0 0 C0.66 0.33 1.32 0.66 2 1 C1.67 4.96 1.34 8.92 1 13 C0.67 13 0.34 13 0 13 C-0.19551338 11.39679026 -0.38111983 9.79237014 -0.5625 8.1875 C-0.71912109 6.84751953 -0.71912109 6.84751953 -0.87890625 5.48046875 C-1 3 -1 3 0 0 Z " fill="#1B775F" transform="translate(439,629)"/>
<path d="M0 0 C1.32 0 2.64 0 4 0 C4 0.66 4 1.32 4 2 C4.66 2 5.32 2 6 2 C5.67 2.99 5.34 3.98 5 5 C2.525 4.01 2.525 4.01 0 3 C0 2.01 0 1.02 0 0 Z " fill="#3C8774" transform="translate(357,631)"/>
<path d="M0 0 C2.31 0 4.62 0 7 0 C7 0.99 7 1.98 7 3 C4.36 3 1.72 3 -1 3 C-0.67 2.01 -0.34 1.02 0 0 Z " fill="#367E6D" transform="translate(337,628)"/>
<path d="M0 0 C0 0.66 0 1.32 0 2 C0.66 2.33 1.32 2.66 2 3 C-0.64 3 -3.28 3 -6 3 C-6 2.34 -6 1.68 -6 1 C-4 0 -4 0 0 0 Z " fill="#358774" transform="translate(435,649)"/>
<path d="M0 0 C3.375 -0.1875 3.375 -0.1875 7 0 C7.66 0.99 8.32 1.98 9 3 C7.35 3.33 5.7 3.66 4 4 C4 3.01 4 2.02 4 1 C2.68 0.67 1.36 0.34 0 0 Z " fill="#297A63" transform="translate(452,638)"/>
<path d="M0 0 C0.99 0 1.98 0 3 0 C3.33 0.99 3.66 1.98 4 3 C3.01 3.66 2.02 4.32 1 5 C0.01 4.01 -0.98 3.02 -2 2 C-1.34 1.34 -0.68 0.68 0 0 Z " fill="#368373" transform="translate(414,642)"/>
</svg>
