<?xml version="1.0" encoding="UTF-8"?>
<svg version="1.1" xmlns="http://www.w3.org/2000/svg" width="960" height="960">
<path d="M0 0 C0.88965513 -0.00205263 1.77931026 -0.00410527 2.69592464 -0.0062201 C5.66231169 -0.01185226 8.62865176 -0.01043756 11.59504318 -0.00901413 C13.74939043 -0.01159995 15.90373719 -0.01461371 18.0580833 -0.01801753 C23.96744337 -0.0260655 29.87679128 -0.02787588 35.78615618 -0.028615 C42.16410553 -0.03046943 48.54204863 -0.03801879 54.91999435 -0.04475021 C69.58935818 -0.05902637 84.25871952 -0.06485842 98.92808908 -0.06944216 C106.18489432 -0.07178143 113.44169878 -0.07538448 120.69850341 -0.07913754 C145.56309028 -0.09197136 170.42767673 -0.10268992 195.29226685 -0.10614014 C196.85200697 -0.10636177 198.41174709 -0.10658355 199.97148721 -0.10680549 C201.53489291 -0.10702613 203.0982986 -0.10724661 204.6617043 -0.10746694 C207.79791085 -0.10790948 210.9341174 -0.10835659 214.07032394 -0.10880661 C214.84791595 -0.108916 215.62550796 -0.10902539 216.42666337 -0.1091381 C241.62101915 -0.11276601 266.81534611 -0.12867687 292.00969085 -0.15199697 C318.67678227 -0.1766349 345.34385722 -0.19031484 372.01096034 -0.19150805 C374.94270246 -0.19167949 377.87444457 -0.19189492 380.80618668 -0.19214249 C381.52800922 -0.19219826 382.24983176 -0.19225402 382.99352771 -0.19231148 C394.57250766 -0.19345857 406.15145786 -0.20445148 417.73042778 -0.21902954 C429.38647978 -0.23344999 441.0424852 -0.23634948 452.69854465 -0.22858956 C459.00400654 -0.22469697 465.30936907 -0.22554436 471.61481857 -0.23964691 C477.40128418 -0.25246965 483.18757662 -0.2511155 488.97404227 -0.2390562 C491.0535305 -0.23711359 493.13303135 -0.24011011 495.21250191 -0.24890056 C512.93159327 -0.31898594 530.43346232 1.26839601 547.70997238 5.38142776 C548.60297043 5.59049759 549.49596848 5.79956741 550.41602707 6.01497269 C579.48008571 13.06675596 607.30618027 25.7603634 631.64747238 43.13142776 C632.28749191 43.58211624 632.92751144 44.03280472 633.58692551 44.49715042 C643.81559941 51.74036162 653.02297398 59.77984308 661.99561691 68.52205276 C663.35827135 69.84966406 664.73362919 71.16422346 666.11231613 72.47517776 C671.4466392 77.62992956 676.04663632 83.32267989 680.64747238 89.13142776 C681.80376144 90.5448848 681.80376144 90.5448848 682.98340988 91.98689651 C712.77751756 129.25363638 732.88425419 179.36871821 732.77890015 227.48395538 C732.7819791 228.81843808 732.7819791 228.81843808 732.78512025 230.17988002 C732.7907524 233.14626708 732.7893377 236.11260714 732.78791428 239.07899857 C732.7905001 241.23334581 732.79351386 243.38769257 732.79691768 245.54203868 C732.80496565 251.45139875 732.80677602 257.36074666 732.80751514 263.27011156 C732.80936958 269.64806091 732.81691894 276.02600401 732.82365036 282.40394974 C732.83792651 297.07331356 732.84375857 311.7426749 732.84834231 326.41204446 C732.85068158 333.66884971 732.85428463 340.92565416 732.85803768 348.18245879 C732.87087151 373.04704567 732.88159007 397.91163211 732.88504028 422.77622223 C732.88526191 424.33596235 732.8854837 425.89570247 732.88570563 427.45544259 C732.88592627 429.01884829 732.88614675 430.58225399 732.88636708 432.14565969 C732.88680962 435.28186623 732.88725674 438.41807278 732.88770676 441.55427933 C732.88781615 442.33187134 732.88792554 443.10946335 732.88803824 443.91061875 C732.89166615 469.10497453 732.90757702 494.29930149 732.93089712 519.49364624 C732.95553505 546.16073765 732.96921499 572.8278126 732.9704082 599.49491572 C732.97057964 602.42665784 732.97079506 605.35839995 732.97104263 608.29014206 C732.9710984 609.0119646 732.97115417 609.73378714 732.97121163 610.4774831 C732.97235872 622.05646304 732.98335162 633.63541324 732.99792969 645.21438317 C733.01235013 656.87043516 733.01524962 668.52644058 733.00748971 680.18250003 C733.00359712 686.48796192 733.00444451 692.79332445 733.01854706 699.09877396 C733.03136979 704.88523956 733.03001565 710.671532 733.01795635 716.45799765 C733.01601373 718.53748588 733.01901026 720.61698674 733.02780071 722.6964573 C733.09788609 740.41554865 731.51050414 757.91741771 727.39747238 775.19392776 C727.08386765 776.53342484 727.08386765 776.53342484 726.76392746 777.89998245 C714.51579883 828.38087714 684.76050472 876.10958709 643.64747238 908.13142776 C642.71161301 908.89584183 641.77575363 909.66025589 640.81153488 910.44783401 C603.63898092 940.21454497 553.30238095 960.36797353 505.29494476 960.26285553 C503.96046207 960.26593448 503.96046207 960.26593448 502.59902012 960.26907563 C499.63263307 960.27470779 496.666293 960.27329309 493.69990158 960.27186966 C491.54555434 960.27445548 489.39120757 960.27746924 487.23686147 960.28087306 C481.3275014 960.28892103 475.41815349 960.29073141 469.50878859 960.29147053 C463.13083923 960.29332496 456.75289613 960.30087432 450.37495041 960.30760574 C435.70558658 960.3218819 421.03622525 960.32771395 406.36685568 960.33229769 C399.11005044 960.33463696 391.85324598 960.33824001 384.59644136 960.34199307 C359.73185448 960.35482689 334.86726803 960.36554545 310.00267792 960.36899567 C308.4429378 960.3692173 306.88319768 960.36943908 305.32345755 960.36966102 C303.76005186 960.36988166 302.19664616 960.37010214 300.63324046 960.37032247 C297.49703391 960.37076501 294.36082737 960.37121212 291.22462082 960.37166214 C290.44702881 960.37177153 289.6694368 960.37188092 288.8682814 960.37199363 C263.67392562 960.37562154 238.47959866 960.3915324 213.28525391 960.4148525 C186.6181625 960.43949043 159.95108754 960.45317037 133.28398442 960.45436358 C130.35224231 960.45453502 127.4205002 960.45475045 124.48875809 960.45499802 C123.40602427 960.45508167 123.40602427 960.45508167 122.30141705 960.45516701 C110.7224371 960.4563141 99.14348691 960.46730701 87.56451698 960.48188507 C75.90846498 960.49630552 64.25245956 960.49920501 52.59640011 960.49144509 C46.29093823 960.4875525 39.98557569 960.48839989 33.68012619 960.50250244 C27.89366059 960.51532518 22.10736815 960.51397103 16.3209025 960.50191173 C14.24141427 960.49996912 12.16191341 960.50296564 10.08244285 960.51175609 C-8.14320662 960.58384509 -26.06984212 958.88950726 -43.79002762 954.44392776 C-45.34076981 954.05938431 -45.34076981 954.05938431 -46.92284012 953.6670723 C-78.63911032 945.54967732 -108.64499882 931.50057429 -134.35252762 911.13142776 C-135.17623856 910.49978714 -135.99994949 909.86814651 -136.84862137 909.21736526 C-144.06601826 903.60511745 -150.73060136 897.42387281 -157.35252762 891.13142776 C-158.18139481 890.34509964 -159.01026199 889.55877151 -159.86424637 888.74861526 C-165.5134996 883.24724825 -170.46989321 877.31554536 -175.35252762 871.13142776 C-176.12209793 870.19041214 -176.89166824 869.24939651 -177.68455887 868.27986526 C-207.49091995 831.00987581 -227.57507267 780.8970505 -227.4867487 732.77724934 C-227.48910093 731.88740381 -227.49145316 730.99755829 -227.49387667 730.08074775 C-227.50050748 727.11366553 -227.50011024 724.1466277 -227.49969864 721.17953873 C-227.50300097 719.02463002 -227.50672732 716.86972192 -227.51084012 714.7148146 C-227.52082651 708.8037075 -227.52457149 702.89261055 -227.52722943 696.98149621 C-227.53114257 690.60140516 -227.54072029 684.22132207 -227.54944229 677.84123611 C-227.56824702 663.16489512 -227.5784594 648.48855438 -227.58690297 633.81220425 C-227.59111654 626.549762 -227.59633766 619.28732057 -227.6015875 612.02487901 C-227.61947668 587.13476882 -227.63446873 562.24465838 -227.64190769 537.35454273 C-227.64238244 535.79307554 -227.64285833 534.23160835 -227.64333535 532.67014116 C-227.64357173 531.89583923 -227.64380811 531.1215373 -227.64405165 530.32377168 C-227.64525277 526.40117722 -227.64646824 522.47858277 -227.64769363 518.55598831 C-227.64793378 517.77755526 -227.64817393 516.9991222 -227.64842136 516.19710026 C-227.65630477 490.98918226 -227.6797173 465.78131146 -227.71224958 440.57341405 C-227.74662957 413.88474608 -227.76626649 387.19610569 -227.76955193 360.50741524 C-227.76996942 357.57137071 -227.77044898 354.6353262 -227.77097511 351.69928169 C-227.7710983 350.97641312 -227.7712215 350.25354454 -227.77134842 349.50877085 C-227.77367056 337.92704735 -227.78927531 326.34537908 -227.80981696 314.76367519 C-227.83018032 303.09632603 -227.8351724 291.42905793 -227.82604633 279.76169259 C-227.82152444 273.45355575 -227.82326395 267.14559645 -227.84280777 260.83748436 C-228.01209897 202.9030786 -219.13822454 149.35495917 -184.35252762 101.13142776 C-183.90473953 100.49720901 -183.45695145 99.86299026 -182.99559402 99.20955276 C-175.74947535 88.97381197 -167.70942302 79.76137687 -158.96190262 70.78328323 C-157.63429132 69.4206288 -156.31973192 68.04527095 -155.00877762 66.66658401 C-149.85464638 61.33290312 -144.1643322 56.72734165 -138.35252762 52.13142776 C-137.35221512 51.3257637 -136.35190262 50.52009964 -135.32127762 49.69002151 C-97.94463386 19.91510944 -48.14654385 -0.1054226 0 0 Z " fill="#5863E2" transform="translate(227.3525276184082,-0.13142776489257813)"/>
<path d="M0 0 C1.00692902 0.00021149 2.01385803 0.00042297 3.05130005 0.00064087 C30.23742065 0.05705193 56.80886152 2.8660011 83.25 9.375 C84.26755371 9.62088867 85.28510742 9.86677734 86.33349609 10.12011719 C145.3434577 24.57116632 198.50905101 53.39545822 243.25 94.375 C244.25727302 95.27794593 245.2651105 96.18026247 246.2734375 97.08203125 C258.29208883 107.90507141 269.24912411 119.66146823 279.25 132.375 C280.31741917 133.7007537 281.38515238 135.02625459 282.453125 136.3515625 C295.25457352 152.37305117 306.15227711 169.54522978 316.25 187.375 C316.58805664 187.96458496 316.92611328 188.55416992 317.27441406 189.16162109 C340.18013466 229.34330475 353.99815251 275.88603438 358.95751953 321.75 C359.22972165 324.19300267 359.54437414 326.6262969 359.87109375 329.0625 C365.7245111 375.87521746 360.65201819 426.52851456 346.25 471.375 C345.76490967 472.92598389 345.76490967 472.92598389 345.27001953 474.50830078 C334.59311799 508.54994631 319.65517865 541.03040976 299.25 570.375 C298.87407715 570.91688965 298.4981543 571.4587793 298.11083984 572.01708984 C289.67221305 584.13790091 280.81463555 595.86947705 270.734375 606.6796875 C268.77110656 608.80964854 266.87063839 610.96658946 264.98046875 613.16015625 C261.10488499 617.60491089 256.99235625 621.78021723 252.8125 625.9375 C252.10029297 626.65357422 251.38808594 627.36964844 250.65429688 628.10742188 C188.56911122 690.0798279 97.655457 728.52661183 9.85049438 728.60842896 C7.70785374 728.60253097 5.56521976 728.59330439 3.42260742 728.58081055 C0.18725673 728.56249862 -3.04780576 728.56030234 -6.28320312 728.56054688 C-40.00668027 728.50644367 -40.00668027 728.50644367 -55.5 725.5625 C-56.46897217 725.38509277 -57.43794434 725.20768555 -58.4362793 725.02490234 C-66.33674201 723.53826674 -74.05590225 721.72346527 -81.75 719.375 C-82.79051514 719.06224121 -82.79051514 719.06224121 -83.85205078 718.74316406 C-107.73400403 711.48642061 -129.26422206 699.41653265 -149.56469727 684.97729492 C-153.50556024 682.17462645 -157.51639171 679.71619079 -161.75 677.375 C-163.11318359 678.80779297 -163.11318359 678.80779297 -164.50390625 680.26953125 C-172.9622052 689.02321741 -181.62762439 696.61353368 -191.75 703.375 C-192.57371094 703.93316406 -193.39742187 704.49132812 -194.24609375 705.06640625 C-208.31452206 714.01460935 -226.39128356 722.94613499 -242.84375 726.015625 C-244.669762 726.35987316 -246.46331706 726.86451916 -248.25 727.375 C-257.38737834 729.98567953 -265.56335883 730.74023225 -275.0625 730.75 C-276.30451172 730.77449219 -277.54652344 730.79898438 -278.82617188 730.82421875 C-290.57796371 730.86119345 -300.99476289 728.58181063 -309.75 720.375 C-317.4727779 712.5818551 -319.66496068 705.26390232 -320.14453125 694.40625 C-320.2104248 693.03194198 -320.27719468 691.65767576 -320.34472656 690.28344727 C-320.37957153 689.56553009 -320.4144165 688.84761292 -320.45031738 688.10794067 C-322.37671674 649.76389425 -330.78559131 613.54990802 -340.359375 576.515625 C-340.57063522 575.69690414 -340.78189545 574.87818329 -340.9995575 574.03465271 C-341.88053878 570.63978037 -342.78345645 567.25828631 -343.75 563.88647461 C-344.96289711 559.62741721 -346.05750616 555.34437742 -347.140625 551.05078125 C-347.47848274 549.71410904 -347.47848274 549.71410904 -347.82316589 548.35043335 C-357.24858987 510.9757713 -365.328549 473.70998212 -369.75 435.375 C-369.82732361 434.71489929 -369.90464722 434.05479858 -369.98431396 433.37469482 C-372.49664701 411.71416704 -373.05694802 390.10889559 -373.125 368.3125 C-373.13285522 367.08375153 -373.14071045 365.85500305 -373.14880371 364.58901978 C-373.24878889 344.51196203 -372.93788329 323.80937619 -368.1723938 304.19787598 C-367.56839629 301.5912739 -367.29409663 298.96987313 -367 296.3125 C-364.38112224 277.27923881 -358.58984352 258.29298861 -351.75 240.375 C-351.4929126 239.69099121 -351.2358252 239.00698242 -350.97094727 238.30224609 C-342.85466023 216.83399156 -333.13645487 195.73157902 -320.75 176.375 C-320.22825195 175.55870117 -319.70650391 174.74240234 -319.16894531 173.90136719 C-300.19899057 144.44484774 -277.61374828 116.08012533 -250.75 93.375 C-249.81929688 92.56675781 -248.88859375 91.75851563 -247.9296875 90.92578125 C-179.49757589 31.76130204 -90.18945857 -0.17769191 0 0 Z " fill="#FEFEFE" transform="translate(485.75,114.625)"/>
<path d="M0 0 C33.66646996 30.11397728 52.95308146 68.03360794 61.66015625 112.09375 C61.83667725 112.98344482 62.01319824 113.87313965 62.19506836 114.78979492 C62.76954142 118.87081533 62.87879755 122.87164332 62.93359375 126.98828125 C62.94616714 127.8446669 62.95874054 128.70105255 62.97169495 129.58338928 C63.28980671 156.48380081 60.6999814 179.90371356 50.66015625 205.09375 C50.38445801 205.79790039 50.10875977 206.50205078 49.82470703 207.22753906 C41.73937735 227.63176017 29.54736792 245.95462958 14.609375 261.9921875 C12.86487919 263.87302667 11.22548057 265.79993031 9.59765625 267.78125 C6.29046159 271.64412506 2.5809505 274.8663438 -1.33984375 278.09375 C-2.82097656 279.33125 -2.82097656 279.33125 -4.33203125 280.59375 C-23.400205 296.23371554 -45.0513586 307.25622893 -68.33984375 315.09375 C-69.53222656 315.4959375 -70.72460938 315.898125 -71.953125 316.3125 C-81.88882617 319.39478567 -92.05143959 320.77371079 -102.33984375 322.09375 C-103.31308594 322.2278125 -104.28632813 322.361875 -105.2890625 322.5 C-127.27353643 325.04892451 -149.25333179 322.53988578 -170.33984375 316.09375 C-171.04318848 315.88379395 -171.7465332 315.67383789 -172.47119141 315.45751953 C-187.90360784 310.8085505 -201.57179185 303.85835704 -215.44921875 295.7578125 C-217.71879662 294.45127172 -219.98107553 293.22733279 -222.33984375 292.09375 C-222.71753906 292.49464844 -223.09523438 292.89554688 -223.484375 293.30859375 C-228.72658073 298.72267507 -234.44457661 303.41109279 -240.33984375 308.09375 C-241.39855943 308.9555794 -242.45715087 309.81756145 -243.515625 310.6796875 C-252.59702085 317.97645809 -263.14198539 326.14528951 -275.33984375 325.09375 C-280.86732019 322.12778703 -283.41997007 316.41320072 -286.33984375 311.09375 C-286.76265625 310.36542969 -287.18546875 309.63710938 -287.62109375 308.88671875 C-315.30469835 258.22217315 -315.68858178 178.18264133 -306.33984375 123.09375 C-305.84484375 122.10375 -305.84484375 122.10375 -305.33984375 121.09375 C-305.06470387 119.47281723 -304.82042018 117.84661962 -304.58984375 116.21875 C-298.68542518 80.10267142 -283.82034699 43.61753335 -259.33984375 16.09375 C-258.62441406 15.27003906 -257.90898437 14.44632812 -257.171875 13.59765625 C-254.93311519 11.05775352 -252.64995575 8.56887 -250.33984375 6.09375 C-249.54320312 5.23136719 -248.7465625 4.36898437 -247.92578125 3.48046875 C-231.06099027 -14.12311217 -209.98770707 -27.10566629 -187.33984375 -35.90625 C-186.20160156 -36.35484375 -185.06335938 -36.8034375 -183.890625 -37.265625 C-121.3461606 -59.95812944 -49.32654296 -43.29275932 0 0 Z " fill="#4B59E5" transform="translate(604.33984375,340.90625)"/>
</svg>
