<?xml version="1.0" encoding="UTF-8"?>
<svg version="1.1" xmlns="http://www.w3.org/2000/svg" width="1024" height="1024">
<path d="M0 0 C1.84461067 -0.01058945 1.84461067 -0.01058945 3.72648621 -0.02139282 C7.67444638 -0.03891393 11.62232153 -0.04608497 15.5703125 -0.046875 C16.58009218 -0.04731686 16.58009218 -0.04731686 17.61027145 -0.04776764 C37.79184509 -0.04919447 57.69797201 0.16863541 77.6953125 3.203125 C79.09147112 3.40918129 80.48762998 3.6152359 81.88378906 3.82128906 C101.77321758 6.79842488 121.3082528 10.80799525 140.6953125 16.203125 C141.68354004 16.47737305 142.67176758 16.75162109 143.68994141 17.03417969 C190.57619138 30.24980226 235.75766209 51.24099002 275.6953125 79.203125 C276.27394043 79.60450684 276.85256836 80.00588867 277.44873047 80.41943359 C286.46204682 86.68384972 295.13788146 93.33198857 303.6953125 100.203125 C305.16677734 101.38068359 305.16677734 101.38068359 306.66796875 102.58203125 C311.95922637 106.86117771 317.09069742 111.27561349 322.11328125 115.8671875 C323.51788103 117.13791469 324.92873718 118.40237171 326.36938477 119.63208008 C332.09229275 124.53019661 337.42941139 129.78450283 342.7409668 135.1184082 C344.2552383 136.63804168 345.7747868 138.15225017 347.29492188 139.66601562 C352.63830759 145.00536592 357.81612929 150.43157435 362.6953125 156.203125 C363.60774389 157.25939889 364.52048742 158.31540326 365.43359375 159.37109375 C391.4995886 189.94622883 412.59579335 223.39582244 430.6953125 259.203125 C431.0675293 259.9367627 431.43974609 260.67040039 431.82324219 261.42626953 C453.59190548 304.74486791 466.00285895 352.38144231 472.6953125 400.203125 C472.96432373 402.09345459 472.96432373 402.09345459 473.23876953 404.02197266 C478.31729222 441.59900595 478.0173199 481.67429565 472.6953125 519.203125 C472.55319336 520.22977264 472.55319336 520.22977264 472.40820312 521.27716064 C463.74341202 583.70577711 443.56152732 645.73081783 409.6953125 699.203125 C409.19290039 699.9986377 408.69048828 700.79415039 408.17285156 701.61376953 C395.75542427 721.17960767 382.3640868 739.78132033 367.24731445 757.34765625 C366.10720282 758.71069675 364.99497296 760.09718358 363.89916992 761.49609375 C357.5519968 769.52901261 350.47593907 776.69446939 343.21118164 783.89306641 C341.12779506 785.95809824 339.05262085 788.03111896 336.97851562 790.10546875 C335.63328426 791.44578616 334.28759673 792.78564591 332.94140625 794.125 C332.33284286 794.73245056 331.72427948 795.33990112 331.09727478 795.96575928 C305.49913497 821.2875621 274.99111156 842.57893366 243.6953125 860.203125 C242.88578125 860.66396484 242.07625 861.12480469 241.2421875 861.59960938 C165.3585693 904.65781394 78.02546301 924.13857798 -8.9296875 919.453125 C-9.7277179 919.41022339 -10.52574829 919.36732178 -11.34796143 919.32312012 C-100.40096289 914.38443551 -186.90806695 882.62205168 -258.3046875 829.203125 C-258.90071777 828.7601709 -259.49674805 828.3172168 -260.11083984 827.86083984 C-272.23282127 818.82748237 -283.56072827 808.91165254 -294.64453125 798.64453125 C-296.80987456 796.65724847 -299.00313505 794.73061842 -301.2421875 792.828125 C-309.23609838 785.88780488 -316.7891255 778.21498125 -323.640625 770.1484375 C-325.60607764 767.85079568 -327.64198621 765.62439377 -329.6796875 763.390625 C-334.40508833 758.1349028 -338.92629435 752.75048484 -343.3046875 747.203125 C-343.87074707 746.48785645 -344.43680664 745.77258789 -345.02001953 745.03564453 C-399.3438218 676.02821011 -433.29449868 591.91701839 -442.3046875 495.203125 C-442.38936279 493.97239258 -442.47403809 492.74166016 -442.5612793 491.47363281 C-443.24627223 481.12885398 -443.50817176 470.81939479 -443.4921875 460.453125 C-443.49125092 459.65465149 -443.49031433 458.85617798 -443.48934937 458.0335083 C-443.24318828 360.10019834 -411.57548632 266.02963322 -336.3046875 164.203125 C-335.7689209 163.56294434 -335.2331543 162.92276367 -334.68115234 162.26318359 C-324.61062996 150.26808602 -324.61062996 150.26808602 -318.98803711 144.88916016 C-317.26322971 143.16160107 -315.69531599 141.35808716 -314.1171875 139.49609375 C-310.36255178 135.17912666 -306.31257838 131.2746074 -302.1171875 127.390625 C-301.37106201 126.69557861 -300.62493652 126.00053223 -299.85620117 125.28442383 C-298.36151233 123.89357078 -296.86521431 122.50444472 -295.3671875 121.1171875 C-293.57762641 119.45642058 -291.79813827 117.78597673 -290.0234375 116.109375 C-283.31213532 109.83106006 -276.3010618 104.10046636 -269.01318359 98.51757812 C-267.40976943 97.28397111 -265.8196156 96.03318272 -264.23046875 94.78125 C-247.75396951 81.87008798 -230.47829838 70.57226594 -212.3046875 60.203125 C-210.82405354 59.34403467 -209.34357482 58.48467672 -207.86328125 57.625 C-146.0551067 22.11440086 -71.5657457 0.27460153 0 0 Z " fill="#2BA2DB" transform="translate(490.3046875,43.796875)"/>
<path d="M0 0 C5.2679662 6.48365071 5.37534501 11.9843266 5 20 C4.5428 24.2762044 3.88372032 28.5068536 3.1875 32.75 C3.02185547 33.81476563 2.85621094 34.87953125 2.68554688 35.9765625 C1.57608241 42.95990864 0.23692787 49.87980931 -1.17211914 56.80810547 C-2.1241738 61.56216086 -2.97973236 66.33267713 -3.83203125 71.10546875 C-3.99084274 71.99383926 -4.14965424 72.88220978 -4.3132782 73.79750061 C-4.64298572 75.64292422 -4.97257857 77.48836833 -5.30206299 79.33383179 C-7.912866 93.92988457 -10.63240994 108.46832188 -13.84863281 122.94458008 C-15.97088313 132.59071305 -17.71831977 142.28764462 -19.44091797 152.01101685 C-21.12375262 161.48639897 -23.02100242 170.87497482 -25.24633789 180.23974609 C-26.74403391 186.62564641 -27.92418823 193.03051091 -29 199.5 C-30.40273865 207.92989935 -32.12599364 216.22536302 -34.07861328 224.54370117 C-35.68226207 231.43793198 -37.06911399 238.35611499 -38.375 245.3125 C-40.56598367 256.97681232 -42.99372854 268.58143593 -45.50146484 280.1809082 C-46.93161598 286.81939683 -48.28700775 293.45950342 -49.50390625 300.140625 C-50.82951867 307.37726445 -52.51518138 314.49255772 -54.3125 321.625 C-56.84561468 331.87584116 -59.10357827 342.13542745 -61.125 352.5 C-62.9093458 361.64899709 -64.80266573 370.73550244 -67.03125 379.78637695 C-68.35369781 385.1914612 -69.5852667 390.61213571 -70.76171875 396.05078125 C-70.99232246 397.11576843 -70.99232246 397.11576843 -71.22758484 398.20227051 C-71.99161442 401.73759823 -72.74978558 405.27409058 -73.50170898 408.81201172 C-78.89842626 434.04232047 -78.89842626 434.04232047 -90.26171875 441.48046875 C-98.7325983 445.81768434 -107.46766747 446.44143979 -116.5625 443.5625 C-121.70153455 441.45156513 -125.4956337 438.4413866 -129.6640625 434.81640625 C-133.86911289 431.18838959 -138.35464966 427.93267844 -142.8125 424.625 C-148.57241604 420.33369289 -154.31007691 416.02647975 -159.9375 411.5625 C-168.39563566 404.85480632 -177.01244633 398.35537013 -185.60595703 391.82275391 C-191.73767541 387.15424387 -197.8350605 382.44104376 -203.9375 377.734375 C-206.01775848 376.13172689 -208.09963707 374.53140769 -210.18359375 372.93359375 C-213.2475741 370.58350141 -216.29776683 368.21600018 -219.34765625 365.84765625 C-221.25241914 364.37736443 -223.15736755 362.90731293 -225.0625 361.4375 C-226.43825195 360.36411377 -226.43825195 360.36411377 -227.84179688 359.26904297 C-228.70998047 358.60146973 -229.57816406 357.93389648 -230.47265625 357.24609375 C-231.24875244 356.64466553 -232.02484863 356.0432373 -232.82446289 355.42358398 C-234.97471357 354.01654642 -236.44697976 353.24957356 -239 353 C-241.4337693 354.86035698 -241.4337693 354.86035698 -243.75 357.5 C-246.77985935 360.68979327 -249.77192802 363.77555148 -253.125 366.625 C-255.87548686 368.97782611 -258.46027814 371.4207494 -261 374 C-263.53972186 376.5792506 -266.12451314 379.02217389 -268.875 381.375 C-272.98360423 384.90356599 -276.7464176 388.73105978 -280.55078125 392.58203125 C-283.3104604 395.30649918 -286.19180657 397.83547376 -289.13671875 400.35546875 C-291.00451793 402.00398752 -292.75455624 403.72303581 -294.5 405.5 C-298.16319112 409.2129177 -302.01886723 412.63305686 -306 416 C-306.73476563 416.65871094 -307.46953125 417.31742188 -308.2265625 417.99609375 C-314.6069402 423.44462935 -314.6069402 423.44462935 -319.1875 423.75 C-323.57649917 422.88659033 -325.97168676 421.14704524 -329 418 C-334.59437474 409.30653805 -337.67620161 399.57909899 -340.4375 389.6875 C-341.01326781 387.68858866 -341.5942458 385.69123908 -342.17562866 383.69395447 C-342.56510903 382.3553933 -342.9531599 381.01641534 -343.3397522 379.67701721 C-345.02587611 373.8489681 -346.86602566 368.07896233 -348.75 362.3125 C-352.78463119 349.88550454 -356.529097 337.37388019 -360.28622437 324.86083984 C-363.75841432 313.30300109 -367.31109701 301.78292127 -371.0625 290.3125 C-374.12254612 280.95328018 -376.86476039 271.61604411 -379 262 C-380.12792969 261.78730469 -381.25585938 261.57460938 -382.41796875 261.35546875 C-390.21960748 259.61787949 -397.74966774 256.8684496 -405.3125 254.3125 C-406.93683941 253.76730713 -408.56127026 253.22238664 -410.18579102 252.67773438 C-419.40995482 249.579205 -428.61168643 246.42215459 -437.78222656 243.16796875 C-443.19299755 241.25519067 -448.64577407 239.53537366 -454.14453125 237.890625 C-456.88761893 237.03505182 -459.56149382 236.07521085 -462.25 235.0625 C-466.8415975 233.34981414 -471.47885507 231.96722833 -476.1875 230.625 C-502.78682022 222.91690463 -502.78682022 222.91690463 -512.5625 212.1875 C-514.82093286 207.17967061 -515.03128289 202.28076871 -513.375 197.01171875 C-508.63866764 187.47562101 -497.46734588 183.65042444 -488.3125 179.6875 C-487.01201963 179.11570461 -485.71189322 178.54310352 -484.41210938 177.96972656 C-480.61430177 176.29859207 -476.80813438 174.6474689 -473 173 C-471.9898584 172.56187988 -470.9797168 172.12375977 -469.93896484 171.67236328 C-464.80014775 169.4475045 -459.65126215 167.24721783 -454.49609375 165.06054688 C-451.04089371 163.5924924 -447.59069607 162.11287257 -444.140625 160.6328125 C-441.52136725 159.50916642 -438.90131423 158.38738902 -436.28125 157.265625 C-432.6742082 155.72013391 -429.07052293 154.1671038 -425.46875 152.609375 C-416.97796467 148.94313915 -408.49551053 145.35949752 -399.8359375 142.109375 C-396.08678028 140.64276253 -392.46157984 138.94724644 -388.8125 137.25 C-384.66968366 135.40874829 -380.4279598 133.85017351 -376.1875 132.25 C-373.2369969 131.09293996 -370.37291706 129.83624049 -367.5 128.5 C-361.44637885 125.69252353 -355.24342961 123.34770561 -349 121 C-341.62367717 118.19997236 -334.30286321 115.31173188 -327.03125 112.25 C-323.87250431 110.94742446 -320.69288667 109.71633778 -317.5 108.5 C-312.45189149 106.57492438 -307.46402127 104.53992561 -302.484375 102.4453125 C-295.48947188 99.54383923 -288.44450313 96.76531297 -281.40966797 93.96240234 C-279.25172463 93.10053683 -277.09594246 92.23362107 -274.94140625 91.36328125 C-266.79625384 88.07936266 -258.60410469 84.94313921 -250.37304688 81.88330078 C-245.68350026 80.13774732 -240.99812736 78.38104086 -236.3125 76.625 C-235.2918042 76.2427124 -234.2711084 75.8604248 -233.21948242 75.46655273 C-225.55127561 72.59105071 -217.89948579 69.67404234 -210.25146484 66.74536133 C-205.33443736 64.86894035 -200.40245301 63.05811875 -195.4375 61.3125 C-191.18472855 59.81624747 -187.02286495 58.20368766 -182.875 56.4375 C-178.95965893 54.77062403 -175.04890955 53.3093227 -171 52 C-167.07319034 50.72985925 -163.2894892 49.3214511 -159.5 47.6875 C-154.19863059 45.42438277 -148.82193392 43.49985983 -143.375 41.625 C-136.79768288 39.36032346 -130.28214475 36.9939333 -123.8125 34.4375 C-117.27351166 31.85380567 -110.69405097 29.44162187 -104.05322266 27.13305664 C-99.73130408 25.62610518 -95.45187002 24.04013496 -91.1875 22.375 C-86.18722282 20.4270012 -81.14875544 18.68459485 -76.05078125 17.01171875 C-65.12771794 13.38934564 -54.3732938 9.28800621 -43.61425781 5.21020508 C-11.5316374 -6.90364102 -11.5316374 -6.90364102 0 0 Z " fill="#FEFEFE" transform="translate(731,295)"/>
<path d="M0 0 C2 1.125 2 1.125 3 3 C3 6.77730272 2.42329261 8.51257215 -0.0625 11.375 C-1.5165625 12.674375 -1.5165625 12.674375 -3 14 C-4.27582848 15.286733 -5.54625064 16.57883924 -6.8125 17.875 C-9.98628182 21.04878182 -13.26622799 24.02776213 -16.66796875 26.953125 C-19.66270123 29.58166741 -22.57974071 32.28928286 -25.5 35 C-29.5828016 38.78653469 -33.69770607 42.51767819 -37.91015625 46.16015625 C-40.64370638 48.56670226 -43.32110702 51.03306703 -46 53.5 C-49.95857261 57.14419551 -53.95176903 60.73913842 -58.015625 64.265625 C-62.05374691 67.79500714 -66.01914681 71.40634226 -70 75 C-71.66640851 76.50028679 -73.33307353 78.00028872 -75 79.5 C-75.825 80.2425 -76.65 80.985 -77.5 81.75 C-145 142.5 -145 142.5 -147.4921875 144.7421875 C-149.18592894 146.26708244 -150.87861169 147.79315402 -152.5703125 149.3203125 C-156.31564256 152.69912708 -160.06518207 156.06895965 -163.875 159.375 C-167.84252724 162.82851561 -171.7084764 166.3900394 -175.57763672 169.95263672 C-178.9644456 173.06585044 -182.39897544 176.11244538 -185.875 179.125 C-188.61823418 181.54550075 -191.30884568 184.02200642 -194 186.5 C-197.30028923 189.53888018 -200.60949283 192.56156045 -204 195.5 C-207.48329387 198.53502188 -210.94139484 201.59643977 -214.375 204.6875 C-214.89964844 205.1515625 -215.42429687 205.615625 -215.96484375 206.09375 C-218.63943801 208.51694637 -220.68114495 210.60752346 -222 214 C-215.3402559 219.65605927 -208.61629245 225.12199323 -201.59375 230.32421875 C-196.88295878 233.81741352 -192.22578965 237.38130452 -187.5625 240.9375 C-186.64734619 241.63520508 -185.73219238 242.33291016 -184.78930664 243.05175781 C-177.84503096 248.34915739 -170.91689803 253.6669195 -164 259 C-161.56294245 260.87557537 -159.12522199 262.75028834 -156.6875 264.625 C-155.58722803 265.47133915 -154.48696646 266.31769182 -153.38671875 267.1640625 C-152.59910156 267.76992188 -151.81148437 268.37578125 -151 269 C-155.17758544 274.03881074 -159.56112456 278.5720219 -164.375 283 C-165.78782 284.31243586 -167.20057857 285.62493786 -168.61328125 286.9375 C-169.33467285 287.60523438 -170.05606445 288.27296875 -170.79931641 288.9609375 C-174.39813277 292.29545206 -177.98072227 295.64720594 -181.5625 299 C-182.20429199 299.598125 -182.84608398 300.19625 -183.50732422 300.8125 C-186.62952912 303.7318797 -189.70302906 306.68531367 -192.71484375 309.71875 C-195.06517314 312.08525669 -197.45051122 314.34612154 -200 316.5 C-202.60647609 318.7455794 -205.08934521 321.04551512 -207.5 323.5 C-211.16319112 327.2129177 -215.01886723 330.63305686 -219 334 C-219.73476563 334.65871094 -220.46953125 335.31742188 -221.2265625 335.99609375 C-227.6069402 341.44462935 -227.6069402 341.44462935 -232.1875 341.75 C-236.57649917 340.88659033 -238.97168676 339.14704524 -242 336 C-247.59437474 327.30653805 -250.67620161 317.57909899 -253.4375 307.6875 C-254.01326781 305.68858866 -254.5942458 303.69123908 -255.17562866 301.69395447 C-255.56510903 300.3553933 -255.9531599 299.01641534 -256.3397522 297.67701721 C-258.02587611 291.8489681 -259.86602566 286.07896233 -261.75 280.3125 C-265.78463119 267.88550454 -269.529097 255.37388019 -273.28622437 242.86083984 C-276.75841432 231.30300109 -280.31109701 219.78292127 -284.0625 208.3125 C-287.12254612 198.95328018 -289.86476039 189.61604411 -292 180 C-291.47535156 179.76667969 -290.95070313 179.53335938 -290.41015625 179.29296875 C-282.2834692 175.46625921 -274.96215915 170.53349362 -267.47460938 165.61376953 C-263.00913597 162.70169581 -258.50235315 159.85458072 -254 157 C-247.52007689 152.88660922 -241.05707402 148.75028074 -234.625 144.5625 C-227.86495414 140.16483136 -221.03431307 135.88609166 -214.1875 131.625 C-204.04580785 125.31263355 -194.01205721 118.84922674 -184.01367188 112.31298828 C-178.38007164 108.63967329 -172.68560384 105.06231069 -166.99609375 101.4765625 C-156.79807436 95.04694355 -146.62960282 88.57295312 -136.47875977 82.0690918 C-126.89909623 75.93194883 -117.3027222 69.82136791 -107.70166016 63.71777344 C-103.13353943 60.81326436 -98.56684923 57.90650771 -94 55 C-92.16667337 53.8333228 -90.33334004 52.66665613 -88.5 51.5 C-87.5925 50.9225 -86.685 50.345 -85.75 49.75 C-75.66666667 43.33333333 -65.58333333 36.91666667 -55.5 30.5 C-54.5915332 29.92185547 -53.68306641 29.34371094 -52.74707031 28.74804688 C-50.92360994 27.58772193 -49.10004315 26.4275642 -47.27636719 25.26757812 C-42.54106708 22.25528346 -37.80795024 19.2396351 -33.078125 16.21875 C-31.61439453 15.28482422 -31.61439453 15.28482422 -30.12109375 14.33203125 C-28.27404197 13.15343631 -26.42763456 11.97383061 -24.58203125 10.79296875 C-22.06092845 9.18514216 -19.5328438 7.58925941 -17 6 C-16.10144287 5.43289307 -15.20288574 4.86578613 -14.27709961 4.28149414 C-13.39546143 3.73614014 -12.51382324 3.19078613 -11.60546875 2.62890625 C-10.81551514 2.13720947 -10.02556152 1.6455127 -9.21166992 1.13891602 C-5.98445501 -0.52296251 -3.5371171 -0.64967457 0 0 Z " fill="#CBE0EE" transform="translate(644,377)"/>
<path d="M0 0 C4.14755805 1.79241202 7.5517547 4.53517105 11.125 7.25 C11.82367188 7.77722656 12.52234375 8.30445313 13.2421875 8.84765625 C19.30207339 13.43554858 25.29680944 18.10611599 31.28564453 22.78613281 C36.78084191 27.07340025 42.33656535 31.27100127 47.92578125 35.43457031 C56.04532351 41.49981957 64.01995216 47.75304914 72 54 C67.82241456 59.03881074 63.43887544 63.5720219 58.625 68 C57.21218 69.31243586 55.79942143 70.62493786 54.38671875 71.9375 C53.66532715 72.60523438 52.94393555 73.27296875 52.20068359 73.9609375 C48.60186723 77.29545206 45.01927773 80.64720594 41.4375 84 C40.79570801 84.598125 40.15391602 85.19625 39.49267578 85.8125 C36.37047088 88.7318797 33.29697094 91.68531367 30.28515625 94.71875 C27.93482686 97.08525669 25.54948878 99.34612154 23 101.5 C20.39352391 103.7455794 17.91065479 106.04551512 15.5 108.5 C11.83680888 112.2129177 7.98113277 115.63305686 4 119 C3.26523437 119.65871094 2.53046875 120.31742188 1.7734375 120.99609375 C-4.60324149 126.44147083 -4.60324149 126.44147083 -9.375 126.625 C-13 126 -13 126 -14.75195312 124.86987305 C-16.6750082 121.9886761 -16.02311594 119.84742347 -15.59375 116.45703125 C-15.51434677 115.79319427 -15.43494354 115.1293573 -15.35313416 114.44540405 C-15.08443373 112.23218579 -14.79226608 110.02271988 -14.5 107.8125 C-14.30591518 106.25384295 -14.11331611 104.69500026 -13.92211914 103.13598633 C-13.51220544 99.81760439 -13.09221693 96.50071042 -12.66455078 93.18457031 C-11.99390171 87.97710518 -11.35227554 82.76630764 -10.71484375 77.5546875 C-8.89392711 62.71779164 -7.02728424 47.88894834 -4.95727539 33.08447266 C-4.07172196 26.69845553 -3.32264644 20.30250795 -2.64575195 13.89111328 C-1.31614009 1.31614009 -1.31614009 1.31614009 0 0 Z " fill="#A7C6DF" transform="translate(421,592)"/>
<path d="M0 0 C0.66 0.33 1.32 0.66 2 1 C-8.89 11.89 -19.78 22.78 -31 34 C-31.66 33.67 -32.32 33.34 -33 33 C-24.90590336 24.16148279 -16.72456584 15.56165519 -7.8046875 7.55078125 C-5.11422905 5.10388798 -2.54938955 2.59141245 0 0 Z " fill="#80C6E6" transform="translate(201,159)"/>
</svg>
